<svg width="37" height="37" fill="none" xmlns="http://www.w3.org/2000/svg"><path d="M36.026 19.672a2.495 2.495 0 00-3.374-.907l-6.19 3.577a2.415 2.415 0 00-.772-1.375 2.492 2.492 0 00-1.646-.617h-5.649a.62.62 0 01-.438-.185l-.148-.148a3.102 3.102 0 00-2.177-.9h-2.485a5.516 5.516 0 00-3.928 1.627L6.79 23.18l-.185-.185a.617.617 0 00-.876.006l-1.405 1.413-.185-.185a.62.62 0 00-.913.043l-3.083 3.7a.617.617 0 00-.142.394v8.017A.617.617 0 00.617 37h9.866a.637.637 0 00.438-.179l2.467-2.467a.622.622 0 000-.875l-.185-.185 1.412-1.406a.617.617 0 00.006-.876l-.179-.173 1.308-1.313a1.824 1.824 0 011.307-.543h6.95a3.022 3.022 0 001.541-.413l9.571-5.525a2.479 2.479 0 00.907-3.373zM10.23 35.767H1.233v-7.179l2.51-3.009 8.337 8.337-1.85 1.85zm2.097-3.343L5.192 25.29l.975-.98 6.968 6.968h.006l.167.173-.98.974zm22.175-10.452l-9.576 5.531a1.814 1.814 0 01-.92.247h-6.95a3.05 3.05 0 00-2.182.906l-1.301 1.308-5.914-5.908 2.436-2.442a4.28 4.28 0 013.052-1.264h2.485a1.833 1.833 0 011.302.542l.148.149a1.849 1.849 0 001.313.542h5.649c.304-.001.597.108.826.309.235.201.381.487.407.795.023.19-.005.384-.08.561a1.223 1.223 0 01-1.147.802h-4.058a.616.616 0 100 1.233h4.058a2.468 2.468 0 001.745-.721 2.53 2.53 0 00.481-.691l6.993-4.033a1.228 1.228 0 011.178-.025c.214.102.39.268.505.475.11.187.168.4.167.617a1.215 1.215 0 01-.617 1.067z" fill="#FF1818"/><path d="M31.45 0a5.544 5.544 0 00-5.224 3.7H12.95a1.855 1.855 0 00-1.85 1.85v11.1a1.856 1.856 0 001.85 1.85h18.5a1.855 1.855 0 001.85-1.85v-5.877A5.544 5.544 0 0031.45 0zM12.332 5.55a.617.617 0 01.617-.617h12.986c-.024.205-.037.41-.037.617.001.631.112 1.257.327 1.85H12.333V5.55zm0 3.083h14.504c.313.467.696.882 1.134 1.234H12.333V8.633zm19.733 8.017a.617.617 0 01-.617.617h-18.5a.617.617 0 01-.616-.617V11.1h19.116c.207 0 .413-.012.617-.037v5.587zm-.617-6.783a4.317 4.317 0 110-8.634 4.317 4.317 0 010 8.634z" fill="#FF1818"/><path d="M29.6 4.933a1.233 1.233 0 100-2.467 1.233 1.233 0 000 2.467zm3.7 3.7a1.233 1.233 0 100-2.467 1.233 1.233 0 000 2.467zm-4.753-.18a.616.616 0 00.872 0l4.933-4.934a.616.616 0 10-.872-.872l-4.933 4.934a.617.617 0 000 .872zm-6.964 5.114h-6.166a.617.617 0 100 1.233h6.166a.617.617 0 000-1.233zm7.401 1.233h-3.7a.617.617 0 010-1.233h3.7a.617.617 0 110 1.233z" fill="#FF1818"/></svg>