<svg width="22" height="21" xmlns="http://www.w3.org/2000/svg"><path fill-rule="evenodd" clip-rule="evenodd" d="M0 6.596C0 2.997 2.488 0 5.94 0 8.212 0 9.913 1.367 11 3.302 12.088 1.367 13.789 0 16.06 0 19.511 0 22 2.996 22 6.596c0 2.396-1.11 4.334-2.96 6.35-1.272 1.389-2.912 2.831-4.805 4.496-.846.744-1.743 1.532-2.68 2.38a.823.823 0 01-1.11 0 246.471 246.471 0 00-2.681-2.382c-1.894-1.665-3.534-3.108-4.807-4.495C1.11 10.929 0 8.99 0 6.596zm5.94-4.875c-2.41 0-4.262 2.067-4.262 4.875 0 1.856.936 3.475 2.605 5.276 1.194 1.29 2.742 2.651 4.556 4.246.684.602 1.406 1.237 2.161 1.914.755-.678 1.478-1.313 2.163-1.915 1.81-1.593 3.358-2.953 4.552-4.242 1.669-1.801 2.607-3.421 2.607-5.279 0-2.808-1.853-4.875-4.263-4.875-1.167 0-2.112.558-2.828 1.337-.718.781-1.196 1.775-1.422 2.61-.227.844-1.393.84-1.618 0-.229-.846-.713-1.84-1.433-2.618-.719-.777-1.662-1.329-2.817-1.329z"/></svg>