<svg width="24" height="24" xmlns="http://www.w3.org/2000/svg"><path fill-rule="evenodd" clip-rule="evenodd" d="M12 0c6.627 0 12 5.373 12 12s-5.373 12-12 12S0 18.627 0 12 5.373 0 12 0zm.719 4.888a6.616 6.616 0 012.199.651c.711.348 1.166.678 1.769 1.277.564.566.877.994 1.21 1.66.462.928.725 2.032.77 3.247.017.414.005.507-.09.625-.18.23-.576.192-.711-.066-.043-.085-.055-.159-.069-.49a8.586 8.586 0 00-.13-1.232c-.28-1.542-1.02-2.773-2.202-3.657-.984-.739-2.002-1.099-3.335-1.177-.45-.026-.529-.042-.63-.12-.19-.15-.2-.5-.017-.664.111-.101.19-.116.576-.104a9.8 9.8 0 01.66.05zm-5.423.256c.083.028.211.095.285.142.45.298 1.705 1.902 2.116 2.702.235.457.313.796.24 1.047-.077.27-.202.412-.764.865-.226.182-.437.369-.47.419a1.103 1.103 0 00-.154.535c.002.396.258 1.113.595 1.665.261.429.728.978 1.19 1.4.544.497 1.023.836 1.564 1.103.695.346 1.12.434 1.43.29.079-.036.162-.084.188-.105.023-.021.206-.244.405-.49.384-.483.472-.562.736-.652.334-.113.675-.082 1.02.093.26.135.83.488 1.197.744.484.338 1.518 1.181 1.658 1.35.247.303.29.691.123 1.12-.175.452-.858 1.3-1.335 1.662-.432.327-.738.453-1.14.472-.333.016-.47-.012-.895-.188-3.33-1.37-5.99-3.417-8.1-6.228-1.103-1.469-1.943-2.992-2.517-4.571-.334-.921-.35-1.322-.076-1.793.119-.199.624-.692.992-.966.612-.455.894-.623 1.12-.67a1.29 1.29 0 01.592.054zm5.586 1.461c1.44.21 2.555.879 3.285 1.963.41.611.667 1.33.755 2.099.03.282.03.796-.003.88a.53.53 0 01-.216.235.53.53 0 01-.398-.014c-.183-.092-.237-.24-.237-.637 0-.613-.16-1.26-.434-1.762a3.602 3.602 0 00-1.324-1.376c-.477-.284-1.181-.495-1.824-.547-.232-.02-.36-.066-.448-.168a.43.43 0 01-.036-.536c.123-.191.313-.222.88-.137zm.506 1.788c.467.1.825.277 1.131.564.394.372.61.822.705 1.468.064.422.038.587-.112.725-.14.128-.398.133-.555.012-.114-.086-.15-.176-.175-.42a2.244 2.244 0 00-.185-.762c-.21-.448-.577-.68-1.198-.756-.292-.035-.38-.068-.475-.18a.441.441 0 01.133-.663c.09-.045.128-.05.328-.038.123.007.306.029.403.05z"/></svg>