<svg viewBox="0 0 1027 1024" xmlns="http://www.w3.org/2000/svg"><path d="M514.886 1024c-282.322 0-512-229.679-512-512s229.678-512 512-512c282.298 0 512 229.679 512 512s-229.702 512-512 512zm0-979.48C257.094 44.52 47.383 254.232 47.383 512s209.71 467.503 467.48 467.503c257.768 0 467.479-209.734 467.479-467.503S772.632 44.52 514.886 44.52z"/><path d="M524.684 238.033c-118.156 0-184.11 73.007-184.925 188.65h51.316c-1.63-83.899 42.356-145.455 131.165-145.455 63.511 0 116.457 44.776 116.457 109.94 0 42.356-22.808 76.567-52.946 105.1-61.859 57.437-79.22 84.433-82.362 163.118h51.968c3.072-71.33 1.466-69.911 63.79-132.189 41.542-39.098 70.866-78.22 70.866-138.496-.023-94.464-74.961-150.668-165.33-150.668m1.956 514.491c-25.694 0-46.546 20.852-46.546 46.522 0 25.693 20.852 46.545 46.546 46.545 25.693 0 46.545-20.852 46.545-46.545 0-25.67-20.852-46.522-46.545-46.522"/></svg>