<svg width="24" height="24" xmlns="http://www.w3.org/2000/svg"><path fill-rule="evenodd" clip-rule="evenodd" d="M0 12C0 5.373 5.373 0 12 0s12 5.373 12 12-5.373 12-12 12S0 18.627 0 12zm11.992.193c1.77 0 3.208-1.389 3.208-3.096C15.2 7.389 13.76 6 11.992 6c-1.77 0-3.208 1.39-3.208 3.097s1.439 3.096 3.208 3.096zm3.169 1.783c-.58.351-1.21.6-1.863.744l1.793 1.732a.884.884 0 010 1.282.963.963 0 01-1.328 0L12 16.035l-1.762 1.7a.956.956 0 01-.665.266.955.955 0 01-.664-.265.885.885 0 010-1.283l1.793-1.732a6.142 6.142 0 01-1.863-.744.889.889 0 01-.294-1.251.959.959 0 011.295-.286 4.198 4.198 0 004.32 0 .96.96 0 011.295.286.889.889 0 01-.294 1.25z"/><path fill-rule="evenodd" clip-rule="evenodd" d="M11.992 7.815c.732 0 1.328.575 1.328 1.282 0 .706-.596 1.282-1.328 1.282-.732 0-1.329-.576-1.329-1.282 0-.707.597-1.282 1.329-1.282z"/></svg>