<svg width="22" height="22" xmlns="http://www.w3.org/2000/svg"><path d="M21.154 2.538H10.88A3.381 3.381 0 007.615 0a3.382 3.382 0 00-3.264 2.538H.846a.846.846 0 000 1.693h3.505a3.382 3.382 0 003.264 2.538 3.381 3.381 0 003.265-2.538h10.274a.846.846 0 000-1.693zM7.615 5.077a1.694 1.694 0 01-1.692-1.692c0-.934.76-1.693 1.692-1.693.934 0 1.693.76 1.693 1.693s-.76 1.692-1.693 1.692zm13.539 5.077h-3.505a3.382 3.382 0 00-3.264-2.539 3.381 3.381 0 00-3.265 2.539H.846a.846.846 0 000 1.692H11.12a3.381 3.381 0 003.265 2.539 3.382 3.382 0 003.264-2.539h3.505a.846.846 0 000-1.692zm-6.77 2.538A1.694 1.694 0 0112.693 11c0-.933.76-1.692 1.693-1.692s1.692.759 1.692 1.692c0 .933-.76 1.692-1.692 1.692zm6.77 5.077H10.88a3.381 3.381 0 00-3.265-2.538 3.381 3.381 0 00-3.264 2.538H.846a.846.846 0 000 1.693h3.505A3.382 3.382 0 007.615 22a3.381 3.381 0 003.265-2.538h10.274a.846.846 0 100-1.693zM7.615 20.308a1.694 1.694 0 01-1.692-1.693c0-.933.76-1.692 1.692-1.692.934 0 1.693.76 1.693 1.692 0 .934-.76 1.693-1.693 1.693z"/></svg>