<svg width="14" height="17" xmlns="http://www.w3.org/2000/svg"><path d="M11.957 2.823A6.464 6.464 0 006.568 0a6.464 6.464 0 00-5.39 2.823C-.054 4.608-.338 6.867.417 8.863c.201.546.522 1.076.951 1.572l4.769 5.601a.568.568 0 00.864 0l4.768-5.6c.43-.499.75-1.028.95-1.569.757-2 .473-4.26-.76-6.044zm-.301 5.647a4.05 4.05 0 01-.749 1.226l-.003.003-4.336 5.094-4.34-5.097a4.052 4.052 0 01-.75-1.23 5.423 5.423 0 01.635-4.997 5.343 5.343 0 014.455-2.334c1.807 0 3.43.85 4.455 2.334a5.424 5.424 0 01.633 5z"/><path d="M6.568 3.368a3.183 3.183 0 00-3.18 3.18 3.183 3.183 0 003.18 3.179 3.183 3.183 0 003.179-3.18 3.183 3.183 0 00-3.18-3.179zm0 5.223a2.046 2.046 0 01-2.044-2.043 2.044 2.044 0 014.086 0A2.046 2.046 0 016.568 8.59z"/></svg>