<svg width="18" height="22" xmlns="http://www.w3.org/2000/svg"><path d="M17.09 6.91H1.683A.682.682 0 001 7.59v11.364C1 20.082 1.918 21 3.045 21h12.682a2.048 2.048 0 002.046-2.046V7.591a.682.682 0 00-.682-.682zm-.68 12.044a.683.683 0 01-.683.682H3.045a.683.683 0 01-.681-.681V8.272h14.045v10.681z"/><path fill-rule="evenodd" clip-rule="evenodd" d="M.9 7.59c0-.43.35-.78.782-.78H17.09c.432 0 .782.35.782.78v11.364a2.148 2.148 0 01-2.146 2.146H3.045A2.148 2.148 0 01.9 18.954V7.591zm.782-.58a.582.582 0 00-.582.58v11.364c0 1.073.873 1.946 1.945 1.946h12.682a1.948 1.948 0 001.946-1.945V7.59a.582.582 0 00-.582-.582H1.68zm.582 1.163h14.245v10.781c0 .432-.35.782-.782.782H3.045a.783.783 0 01-.781-.782V8.173zm.2.2v10.582c0 .32.26.581.581.581h12.682c.32 0 .582-.26.582-.582V8.373H2.464z"/><path d="M9.5 1a4.096 4.096 0 00-4.09 4.09v5.683a.682.682 0 101.363 0V5.09A2.73 2.73 0 019.5 2.364a2.73 2.73 0 012.727 2.727v5.682a.682.682 0 101.364 0V5.09A4.096 4.096 0 009.5 1z"/><path fill-rule="evenodd" clip-rule="evenodd" d="M5.31 5.09C5.31 2.78 7.19.9 9.5.9c2.31 0 4.19 1.88 4.19 4.19v5.683a.782.782 0 11-1.563 0V5.09A2.63 2.63 0 009.5 2.464 2.63 2.63 0 006.873 5.09v5.682a.782.782 0 11-1.564 0V5.09zM9.5 1.1c-2.2 0-3.99 1.79-3.99 3.99v5.683a.582.582 0 101.163 0V5.09A2.83 2.83 0 019.5 2.264a2.83 2.83 0 012.827 2.827v5.682a.582.582 0 101.164 0V5.09A3.996 3.996 0 009.5 1.1z"/></svg>