<svg width="20" height="20" xmlns="http://www.w3.org/2000/svg"><path fill-rule="evenodd" clip-rule="evenodd" d="M2.929 2.929A9.936 9.936 0 0110 0c2.67 0 5.183 1.04 7.071 2.929A9.936 9.936 0 0120 10c0 2.67-1.04 5.183-2.929 7.071A9.936 9.936 0 0110 20a9.936 9.936 0 01-7.071-2.929A9.936 9.936 0 010 10c0-2.67 1.04-5.183 2.929-7.071zM10 1.63c-4.614 0-8.369 3.755-8.369 8.369a8.34 8.34 0 002.4 5.86 6.326 6.326 0 013.172-3.576 4.483 4.483 0 01-1.692-3.509A4.494 4.494 0 0110 4.286a4.494 4.494 0 014.49 4.49 4.482 4.482 0 01-1.693 3.508 6.325 6.325 0 013.172 3.575 8.34 8.34 0 002.4-5.859c0-4.614-3.755-8.369-8.369-8.369zm0 4.286a2.862 2.862 0 00-2.858 2.858A2.862 2.862 0 0010 11.634a2.862 2.862 0 002.858-2.859A2.862 2.862 0 0010 5.917zM5.405 16.991A8.323 8.323 0 0010 18.369a8.318 8.318 0 004.595-1.378A4.682 4.682 0 0010 13.265a4.682 4.682 0 00-4.595 3.726z"/></svg>