<svg width="22" height="21" viewBox="0 0 22 21" xmlns="http://www.w3.org/2000/svg">
<path fill-rule="evenodd" clip-rule="evenodd" d="M0 6.59607C0 2.99706 2.48812 0 5.94058 0C8.21126 0 9.91243 1.36674 11 3.3016C12.0876 1.36663 13.7888 0 16.0594 0C19.5115 0 22 2.99647 22 6.59607C22 8.99175 20.8897 10.9303 19.0405 12.9468C17.768 14.3346 16.1275 15.7772 14.235 17.4415C13.3887 18.1858 12.4919 18.9744 11.5551 19.8223C11.2379 20.1092 10.7621 20.1094 10.4449 19.8223C9.50741 18.9738 8.61019 18.1847 7.76359 17.4402C5.87 15.7749 4.22955 14.3322 2.95736 12.9447C1.10883 10.9287 0 8.99143 0 6.59607ZM5.94058 1.72144C3.53094 1.72144 1.678 3.78771 1.678 6.59607C1.678 8.45246 2.61446 10.0711 4.28251 11.8719C5.47672 13.1612 7.02521 14.523 8.83913 16.1183C9.52325 16.72 10.2451 17.3548 11 18.0315C11.7554 17.3544 12.4779 16.719 13.1627 16.1169C14.9738 14.5242 16.5211 13.1636 17.7151 11.8749C19.384 10.0736 20.322 8.45353 20.322 6.59607C20.322 3.78771 18.4691 1.72144 16.0594 1.72144C14.8919 1.72144 13.9475 2.27903 13.2312 3.05801C12.5128 3.83925 12.0346 4.83302 11.809 5.6679C11.5816 6.51199 10.4158 6.50818 10.1909 5.6677C9.96239 4.82181 9.47846 3.82822 8.75797 3.04982C8.03938 2.27347 7.09638 1.72144 5.94058 1.72144Z"/>
</svg>
