<svg width="29" height="24" viewBox="0 0 29 24" fill="none" xmlns="http://www.w3.org/2000/svg">
<path d="M11.5511 0.665557C12.0017 0.222484 12.7327 0.222484 13.184 0.665557C13.635 1.10827 13.635 1.82689 13.184 2.26996L4.43857 10.8626H27.675C28.3146 10.8626 28.8334 11.3724 28.8334 12.0008C28.8334 12.6296 28.3146 13.139 27.675 13.139H4.45018L13.1956 21.7317C13.4126 21.9441 13.5345 22.2332 13.5345 22.534C13.5345 22.8352 13.4126 23.1236 13.1956 23.3364C12.9787 23.5514 12.6815 23.6704 12.3732 23.6665C12.0659 23.6651 11.7709 23.5467 11.5511 23.3364L0.836414 12.8092C0.618376 12.5947 0.496841 12.3034 0.500107 12.0008C0.502283 11.6989 0.62273 11.4102 0.836414 11.1931L11.5511 0.665557Z" fill="white"/>
</svg>
