<svg width="20" height="20" viewBox="0 0 20 20" xmlns="http://www.w3.org/2000/svg">
<path fill-rule="evenodd" clip-rule="evenodd" d="M2.92892 2.92892C4.81733 1.04052 7.32926 0 10 0C12.6706 0 15.1827 1.04052 17.0711 2.92892C18.9595 4.81733 20 7.32926 20 10C20 12.6706 18.9595 15.1827 17.0711 17.0711C15.1827 18.9595 12.6706 20 10 20C7.32926 20 4.81733 18.9595 2.92892 17.0711C1.04052 15.1827 0 12.6706 0 10C0 7.32926 1.04052 4.81733 2.92892 2.92892ZM10 1.6311C5.38557 1.6311 1.6311 5.38557 1.6311 10C1.6311 12.2793 2.54738 14.3484 4.03135 15.8597C4.37803 14.8741 4.9672 13.9822 5.75635 13.268C6.19487 12.871 6.68219 12.5414 7.20315 12.2844C6.17292 11.4617 5.51073 10.1948 5.51073 8.77543C5.51073 6.2998 7.52437 4.28616 10 4.28616C12.4756 4.28616 14.4894 6.29979 14.4894 8.77543C14.4894 10.1948 13.8272 11.4617 12.7969 12.2845C13.3179 12.5414 13.8051 12.8712 14.2436 13.2681C15.0329 13.9824 15.622 14.8742 15.9687 15.8598C17.4526 14.3486 18.3689 12.2795 18.3689 10C18.3689 5.38557 14.6144 1.6311 10 1.6311ZM10 5.91725C8.42422 5.91725 7.14183 7.19952 7.14183 8.77543C7.14183 10.3512 8.42423 11.6336 10 11.6336C11.5758 11.6336 12.8582 10.3512 12.8582 8.77543C12.8582 7.19966 11.5758 5.91725 10 5.91725ZM5.40462 16.9907C6.72458 17.8614 8.30385 18.3689 10 18.3689C11.6962 18.3689 13.2754 17.8614 14.5954 16.9907C14.1472 14.8366 12.249 13.2647 10 13.2647C7.7511 13.2647 5.85282 14.8366 5.40462 16.9907Z"/>
</svg>
