<svg width="1043" height="590" viewBox="0 0 1043 590" fill="none" xmlns="http://www.w3.org/2000/svg">
<g opacity="0.6">
<path d="M198.985 21.4828C210.888 20.0269 235.229 27.9593 250.494 43.5218C269.909 63.2475 269.473 82.2985 260.116 95.2687L278.186 116.719L276.464 118.337L198.985 21.4828Z" fill="#FFFAF3"/>
<path d="M198.985 21.4823C195.727 40.4534 199.448 59.9936 209.468 76.5333C224.622 99.6766 242.032 103.992 256.824 97.7813L273.693 120.828L276.5 118C276.5 118 250.752 90.5055 231.5 66.4999C212.248 42.4942 198.985 21.4823 198.985 21.4823Z" fill="#FFFAF3"/>
<path d="M675.165 135.931C675.638 143.713 669.525 159.194 658.821 168.483C645.251 180.299 632.905 179.261 624.86 172.675L610.224 183.55L609.241 182.369L675.165 135.931Z" fill="#FFFAF3"/>
<path d="M675.165 135.931C662.984 133.065 650.156 134.704 639.026 140.551C623.406 149.467 619.916 160.593 623.36 170.439L607.735 180.472L609.459 182.405C609.459 182.405 628.322 166.787 644.663 155.246C661.004 143.704 675.165 135.931 675.165 135.931Z" fill="#FFFAF3"/>
<path d="M796.823 625.385C778.962 627.412 742.583 615.205 719.905 591.68C691.061 561.861 691.963 533.312 706.157 513.993L679.352 481.607L681.954 479.203L796.823 625.385Z" fill="#FFFAF3"/>
<path d="M796.823 625.385C801.954 596.993 796.631 567.656 781.828 542.735C759.416 507.849 733.377 501.154 711.125 510.27L686.14 475.506L681.896 479.708C681.896 479.708 720.13 521.254 748.674 557.486C777.218 593.719 796.823 625.385 796.823 625.385Z" fill="#FFFAF3"/>
<path d="M196.864 571.314C190.192 568.205 180.092 556.167 177.198 543.103C173.495 526.523 179.91 516.743 188.997 513.028L186.554 495.987L187.977 495.704L196.864 571.314Z" fill="#FFFAF3"/>
<path d="M196.864 571.314C204.723 562.493 209.133 551.108 209.288 539.239C208.914 522.263 201.249 514.36 191.528 512.79L190.229 495.307L187.849 495.868C187.849 495.868 192.326 518.551 194.554 537.307C196.782 556.063 196.864 571.314 196.864 571.314Z" fill="#FFFAF3"/>
<path d="M2.50303 377.306C5.66595 368.468 19.7646 354.228 36.0129 349.017C56.6309 342.365 69.8042 349.361 75.59 360.463L96.9416 355.357L97.4692 357.13L2.50303 377.306Z" fill="#FFFAF3"/>
<path d="M2.50268 377.306C14.6287 386.249 29.6042 390.51 44.6935 389.31C66.2054 386.84 75.3395 376.177 76.1911 363.648L98.2382 359.944L97.2456 356.987C97.2456 356.987 68.9689 365.34 45.4141 370.374C21.8594 375.409 2.50268 377.306 2.50268 377.306Z" fill="#FFFAF3"/>
<path d="M495.97 457.579C494.134 468.685 496.553 478.315 501.008 478.88C505.463 479.445 510.803 471.272 512.683 460.244C513.712 454.905 513.527 449.403 512.139 444.149C516.102 447.547 519.969 451.049 523.618 454.621C519.468 455.732 515.211 463.358 513.624 473.149C511.745 484.177 514.225 493.824 518.662 494.45C523.1 495.076 528.44 486.904 530.258 475.858C531.207 470.941 531.148 465.884 530.083 460.993C533.758 464.705 537.214 468.485 540.409 472.255C536.312 471.596 531.722 479.457 529.915 489.778C528.109 500.1 530.122 509.083 534.22 509.743C538.317 510.402 542.907 502.541 544.774 492.237C545.773 487.203 545.633 482.011 544.366 477.04L547.023 480.391C550.001 484.23 552.613 487.964 554.92 491.609C551.084 490.959 546.563 499.038 544.789 509.7C543.016 520.362 544.654 529.501 548.526 530.029C552.398 530.557 556.884 522.6 558.639 511.999C559.469 507.456 559.547 502.809 558.868 498.244C560.91 502.072 562.596 506.081 563.906 510.22C560.762 512.416 559.567 520.402 561.337 529.314C563.292 539.405 568.238 546.923 572.299 546.117C576.36 545.312 578.124 536.499 576.168 526.408C574.213 516.318 570.227 510.268 566.408 509.557C565.493 506.875 564.426 504.247 563.214 501.687C565.332 503.263 567.573 504.665 569.916 505.879C579.436 510.823 588.65 512.041 590.442 508.593C592.234 505.145 585.893 498.345 576.373 493.402C567.714 488.906 559.354 487.472 556.557 489.835C554.274 486.33 552.01 482.763 548.893 478.949L547.101 476.71C550.829 479.166 554.949 480.965 559.283 482.029C569.63 485.03 579.04 483.528 579.895 479.213C580.751 474.898 573.473 469.281 563.098 466.603C552.724 463.924 543.342 465.104 542.486 469.419C542.329 469.928 542.309 470.469 542.426 470.989C539.066 467.104 535.463 463.149 531.72 459.22C536.455 460.324 541.361 460.489 546.161 459.706C557.234 458.156 565.685 453.135 565.045 448.518C564.405 443.901 554.918 441.348 543.845 442.897C533.93 444.32 526.128 448.471 525.046 452.654C521.379 449.144 517.573 445.659 513.671 442.279C519.593 442.383 525.434 440.878 530.573 437.923C540.522 432.741 546.809 425.174 544.642 421.04C542.476 416.907 532.47 417.509 522.789 422.902C514.297 427.382 508.497 433.503 508.303 437.811C503.966 434.261 499.626 430.797 495.282 427.421C500.894 428.049 506.556 426.783 511.371 423.822C519.836 419.664 525.326 412.792 523.462 409.209C521.598 405.626 513.176 406.225 504.588 410.81C496 415.395 490.651 421.779 492.436 425.405C488.392 422.513 484.313 419.742 480.242 417.172C483.923 416.714 487.47 415.49 490.654 413.579C498.333 409.855 502.774 403.869 500.934 400.888C499.093 397.907 491.987 398.293 484.595 402.166C482.167 403.144 479.966 404.614 478.13 406.482C476.293 408.35 474.861 410.577 473.922 413.025C470.988 411.313 468.279 409.734 465.187 408.11C463.543 407.633 462.095 406.485 460.522 405.764C464.213 406.391 468.004 406.031 471.514 404.721C478.35 402.537 483.106 398.428 482.213 395.59C481.321 392.752 475.02 392.181 468.184 394.364C461.348 396.547 456.593 400.657 457.546 403.512C457.668 403.956 457.921 404.352 458.272 404.649C445.758 398.268 432.244 394.079 418.315 392.264L418.051 394.767C431.066 396.649 443.675 400.687 455.363 406.715C453.91 408.437 452.835 410.446 452.207 412.611C451.579 414.776 451.413 417.048 451.718 419.281C451.755 426.434 454.531 432.331 457.213 432.183C459.896 432.036 462.603 426.34 462.567 419.187C462.671 415.725 461.974 412.287 460.533 409.14C464.806 411.24 469.131 413.619 473.525 416.216C471.383 417.824 469.62 419.885 468.363 422.252C467.106 424.619 466.385 427.235 466.252 429.912C464.847 438.168 466.608 445.291 470.079 445.836C473.551 446.38 477.505 440.252 478.911 431.997C479.822 427.663 479.53 423.163 478.065 418.988C481.581 421.198 485.201 423.505 488.768 425.994C486.479 427.942 484.604 430.331 483.258 433.02C481.911 435.708 481.119 438.641 480.929 441.642C479.335 451.232 481.3 459.473 485.258 460.159C489.216 460.844 493.768 453.567 495.406 444.056C496.194 439.625 496.052 435.079 494.989 430.709C498.728 433.513 502.511 436.396 506.179 439.444C501.779 440.284 497.511 448.172 495.97 457.579Z" fill="#FFFAF3"/>
<path d="M189.593 414.541C181.55 411.487 173.97 411.845 172.873 415.097C171.777 418.349 177.093 423.585 185.071 426.659C188.915 428.237 193.065 428.929 197.212 428.684C194.067 431.139 190.859 433.507 187.632 435.701C187.426 432.425 182.356 428.082 175.261 425.415C167.283 422.34 159.68 422.741 158.541 425.971C157.402 429.201 162.717 434.436 170.718 437.468C174.258 438.921 178.056 439.641 181.881 439.582C178.545 441.774 175.191 443.793 171.883 445.617C172.996 442.647 167.801 438.02 160.341 435.107C152.881 432.194 145.847 432.345 144.733 435.316C143.62 438.286 148.816 442.912 156.253 445.868C159.874 447.377 163.785 448.057 167.7 447.858L164.789 449.343C161.463 450.993 158.271 452.386 155.191 453.564C156.258 450.788 150.888 446.18 143.168 443.241C135.448 440.301 128.354 440.148 127.373 442.969C126.393 445.79 131.677 450.353 139.353 453.27C142.631 454.578 146.101 455.338 149.624 455.52C146.447 456.471 143.189 457.128 139.89 457.484C138.72 454.797 132.918 452.695 125.973 452.674C118.118 452.615 111.738 455.184 111.728 458.348C111.719 461.512 118.054 464.166 125.909 464.225C133.765 464.284 138.899 462.212 140.009 459.459C142.157 459.178 144.286 458.776 146.388 458.255C144.887 459.603 143.498 461.071 142.234 462.643C137.092 469.028 134.787 475.747 137.1 477.611C139.412 479.474 145.465 475.75 150.607 469.366C155.283 463.557 157.62 457.511 156.273 455.058C159.244 453.878 162.258 452.72 165.587 450.961L167.535 449.957C165.132 452.379 163.161 455.194 161.709 458.28C157.897 465.578 157.601 472.855 160.705 474.148C163.808 475.441 169.116 470.837 172.69 463.469C176.264 456.102 176.798 448.894 173.694 447.601C173.336 447.407 172.934 447.31 172.527 447.319C175.945 445.389 179.453 443.287 182.962 441.076C181.419 444.457 180.554 448.107 180.416 451.822C179.904 460.352 182.389 467.442 185.945 467.66C189.5 467.878 192.847 461.156 193.359 452.626C193.791 444.984 191.86 438.511 188.889 437.068C192.073 434.852 195.259 432.527 198.381 430.114C197.408 434.535 197.653 439.138 199.091 443.435C201.47 451.672 206.189 457.525 209.613 456.526C213.037 455.528 214.098 447.94 211.521 439.873C209.447 432.834 205.738 427.563 202.539 426.767C205.855 424.055 209.105 421.326 212.291 418.582C210.972 422.691 211.066 427.125 212.556 431.18C214.393 438.149 218.711 443.301 221.677 442.446C224.643 441.591 225.467 435.191 223.33 428.064C221.192 420.937 217.218 415.965 214.231 416.755C217.009 414.162 219.701 411.525 222.242 408.863C222.028 411.69 222.409 414.532 223.36 417.206C224.99 423.522 228.804 427.754 231.315 426.825C233.826 425.897 234.611 420.514 232.826 414.391C232.46 412.424 231.692 410.554 230.57 408.896C229.448 407.238 227.995 405.828 226.304 404.755C228.029 402.815 229.622 401.024 231.306 398.953C231.911 397.794 232.99 396.882 233.768 395.813C232.741 398.483 232.438 401.378 232.889 404.206C233.492 409.657 235.852 413.84 238.113 413.601C240.374 413.361 241.754 408.727 241.151 403.275C240.548 397.824 238.188 393.641 235.904 393.923C235.554 393.948 235.219 394.078 234.943 394.296C241.615 385.884 246.795 376.393 250.259 366.231L248.424 365.655C245.047 375.122 240.117 383.958 233.835 391.804C232.764 390.455 231.422 389.346 229.895 388.549C228.368 387.751 226.69 387.283 224.972 387.175C219.607 386.121 214.769 387.31 214.475 389.342C214.18 391.374 218.038 394.263 223.402 395.316C225.981 395.917 228.662 395.915 231.237 395.31C229.018 398.195 226.583 401.076 223.973 403.975C223.092 402.127 221.814 400.495 220.231 399.196C218.647 397.896 216.796 396.961 214.811 396.457C208.838 394.157 203.235 394.4 202.303 396.918C201.371 399.437 205.364 403.325 211.336 405.626C214.445 406.963 217.861 407.424 221.21 406.958C219.023 409.258 216.748 411.621 214.344 413.917C213.231 411.908 211.724 410.143 209.913 408.728C208.102 407.312 206.025 406.276 203.805 405.681C196.861 403.037 190.39 403.264 189.279 406.126C188.167 408.988 192.931 413.498 199.809 416.161C203.01 417.421 206.437 418.002 209.872 417.866C207.206 420.243 204.475 422.642 201.637 424.93C201.673 421.506 196.408 417.117 189.593 414.541Z" fill="#FFFAF3"/>
<path d="M683.598 15.8233C685.974 8.39585 690.507 3.22312 693.432 4.28204C696.357 5.34096 697.068 12.0662 694.744 19.4588C693.692 23.0758 691.84 26.4092 689.324 29.2104C692.841 28.3671 696.331 27.4292 699.709 26.3798C697.502 24.3842 697.286 18.3373 699.4 11.8003C701.725 4.40769 706.301 -0.756701 709.235 0.259023C712.168 1.27475 712.879 7.99993 710.511 15.3842C709.543 18.7151 707.909 21.8143 705.708 24.4932C709.146 23.3658 712.471 22.1269 715.631 20.8115C712.897 19.9239 712.55 13.6277 714.697 6.69353C716.843 -0.240606 720.922 -5.14283 723.656 -4.25519C726.391 -3.36756 726.738 2.92865 724.634 9.87113C723.66 13.29 721.933 16.4473 719.582 19.1112L722.279 17.8852C725.327 16.4584 728.117 14.9815 730.691 13.463C728.12 12.6519 727.885 6.2428 730.16 -0.890642C732.434 -8.02409 736.33 -13.1408 738.884 -12.2433C741.438 -11.3458 741.69 -5.02312 739.424 2.06713C738.501 5.12961 737.081 8.01921 735.221 10.6199C737.689 8.90412 739.995 6.96516 742.11 4.8274C740.865 2.48026 742.65 -2.82074 746.557 -7.75632C750.949 -13.3595 756.373 -16.4329 758.622 -14.6534C760.871 -12.8738 759.176 -6.88313 754.783 -1.27993C750.39 4.32327 746.022 6.79431 743.443 6.02642C742.031 7.3906 740.544 8.6738 738.988 9.8699C740.791 9.56671 742.616 9.41021 744.444 9.40194C751.874 9.36079 757.94 11.5203 757.956 14.2122C757.971 16.9041 751.914 19.093 744.483 19.1342C737.725 19.1708 732.118 17.4138 731.14 15.0735C728.625 16.5139 726.102 17.9976 722.976 19.3645L721.164 20.1791C724.238 19.8424 727.346 20.0346 730.355 20.7474C737.682 22.1651 743.009 26.0638 742.173 28.9944C741.338 31.9249 735.076 33.0885 727.834 31.4632C720.592 29.8378 715.18 26.1467 716.016 23.2162C716.08 22.8528 716.239 22.5126 716.475 22.2295C713.176 23.5631 709.705 24.8633 706.157 26.1036C709.425 26.9184 712.502 28.3662 715.214 30.3656C721.551 34.8185 725.175 40.5837 723.322 43.2277C721.469 45.8717 714.814 44.4495 708.476 39.9966C702.813 35.988 699.314 30.964 699.969 28.0433C696.599 29.0494 693.152 29.9957 689.678 30.8473C693.362 32.6532 696.488 35.4261 698.723 38.8713C703.22 45.2087 704.706 51.8597 702.064 53.7238C699.423 55.5879 693.444 52.0559 689.179 45.6738C685.359 40.2292 683.716 34.6232 684.957 31.9057C681.162 32.7249 677.393 33.4893 673.648 34.1989C677.306 35.5839 680.397 38.1534 682.43 41.4999C686.336 46.7368 687.55 52.708 685.269 54.3281C682.988 55.9482 677.985 52.9188 674.139 47.3794C670.292 41.84 669.011 36.2144 671.257 34.5428C667.85 35.0488 664.46 35.4684 661.138 35.7667C663.263 37.212 665.063 39.0867 666.423 41.2706C669.98 45.9922 670.828 51.0858 668.752 52.3421C666.675 53.5985 662.416 51.1162 659.082 46.3931C657.894 45.0233 657.001 43.4224 656.459 41.6905C655.917 39.9587 655.738 38.1331 655.932 36.3279C653.582 36.4558 651.413 36.5739 648.994 36.5987C647.83 36.3736 646.574 36.6236 645.377 36.5712C647.851 37.351 650.074 38.7705 651.825 40.6868C655.349 44.1921 656.983 48.2277 655.537 49.6955C654.09 51.1634 650.025 49.5254 646.5 46.0201C642.975 42.5148 641.342 38.4792 642.831 37.0196C643.047 36.7848 643.328 36.6205 643.638 36.5483C633.907 36.5296 624.252 34.8434 615.091 31.5627L615.719 29.9364C624.338 32.8867 633.387 34.3802 642.497 34.3558C642.145 32.835 642.117 31.2568 642.413 29.7238C642.71 28.1907 643.325 26.7371 644.219 25.4573C646.501 21.0589 650.075 18.2999 651.682 19.2382C653.289 20.1765 653.16 24.5432 650.878 28.9416C649.848 31.1089 648.333 33.0089 646.45 34.4932C649.748 34.5488 653.166 34.4483 656.695 34.2348C655.882 32.5668 655.447 30.7395 655.419 28.8829C655.392 27.0264 655.774 25.1863 656.537 23.4938C658.279 17.9602 661.614 14.1242 663.926 14.8852C666.238 15.6463 666.741 20.6731 665 26.2068C664.193 29.1664 662.592 31.8482 660.37 33.96C663.236 33.7078 666.196 33.4291 669.181 33.0209C668.385 31.0973 667.984 29.0321 668.003 26.949C668.022 24.8659 668.46 22.8077 669.291 20.8976C671.338 14.4818 675.152 10.0214 677.808 10.8492C680.465 11.6769 680.973 17.6011 678.979 23.982C678.065 26.9627 676.542 29.7204 674.506 32.0792C677.697 31.5316 680.939 30.949 684.164 30.2285C681.716 28.3209 681.577 22.1095 683.598 15.8233Z" fill="#FFFAF3"/>
<path d="M930.947 442.24C934.278 431.83 940.631 424.58 944.731 426.064C948.831 427.548 949.827 436.974 946.569 447.335C945.095 452.404 942.499 457.076 938.973 461.002C943.902 459.82 948.794 458.506 953.528 457.035C950.435 454.238 950.132 445.763 953.095 436.601C956.353 426.24 962.767 419.002 966.879 420.425C970.99 421.849 971.986 431.275 968.668 441.624C967.311 446.293 965.021 450.636 961.936 454.391C966.754 452.811 971.414 451.074 975.844 449.231C972.012 447.987 971.526 439.162 974.534 429.444C977.543 419.725 983.259 412.854 987.092 414.098C990.924 415.342 991.41 424.167 988.462 433.897C987.096 438.689 984.677 443.114 981.382 446.848L985.161 445.129C989.433 443.13 993.343 441.06 996.951 438.931C993.348 437.795 993.018 428.812 996.206 418.814C999.394 408.816 1004.86 401.645 1008.43 402.902C1012.01 404.16 1012.37 413.022 1009.19 422.959C1007.9 427.252 1005.91 431.302 1003.3 434.947C1006.76 432.542 1009.99 429.824 1012.96 426.828C1011.21 423.538 1013.71 416.109 1019.19 409.191C1025.34 401.338 1032.95 397.03 1036.1 399.525C1039.25 402.019 1036.87 410.415 1030.72 418.268C1024.56 426.122 1018.44 429.585 1014.82 428.509C1012.84 430.421 1010.76 432.219 1008.58 433.896C1011.11 433.471 1013.66 433.251 1016.23 433.24C1026.64 433.182 1035.14 436.209 1035.16 439.982C1035.19 443.754 1026.7 446.822 1016.28 446.88C1006.81 446.931 998.951 444.469 997.58 441.189C994.056 443.208 990.52 445.287 986.138 447.203L983.599 448.345C987.907 447.873 992.263 448.142 996.48 449.141C1006.75 451.128 1014.21 456.592 1013.04 460.7C1011.87 464.807 1003.1 466.438 992.947 464.16C982.797 461.882 975.212 456.708 976.383 452.601C976.473 452.092 976.695 451.615 977.027 451.218C972.403 453.087 967.539 454.91 962.565 456.648C967.145 457.79 971.458 459.819 975.259 462.622C984.141 468.862 989.221 476.943 986.623 480.648C984.026 484.354 974.698 482.361 965.816 476.12C957.879 470.502 952.974 463.46 953.892 459.367C949.169 460.777 944.338 462.103 939.469 463.297C944.632 465.828 949.013 469.714 952.146 474.543C958.449 483.425 960.531 492.747 956.829 495.359C953.128 497.972 944.748 493.022 938.77 484.077C933.416 476.446 931.113 468.589 932.853 464.78C927.534 465.928 922.25 467 917.002 467.994C922.129 469.935 926.461 473.537 929.311 478.227C934.784 485.567 936.487 493.936 933.29 496.206C930.093 498.477 923.081 494.231 917.689 486.467C912.298 478.704 910.502 470.819 913.65 468.476C908.876 469.185 904.124 469.773 899.468 470.191C902.447 472.217 904.97 474.845 906.875 477.906C911.861 484.523 913.05 491.662 910.139 493.423C907.229 495.184 901.259 491.705 896.587 485.085C894.922 483.165 893.671 480.921 892.911 478.494C892.151 476.067 891.9 473.508 892.172 470.978C888.879 471.157 885.838 471.323 882.448 471.358C880.817 471.042 879.057 471.392 877.379 471.319C880.845 472.412 883.962 474.402 886.415 477.087C891.355 482 893.645 487.656 891.618 489.714C889.59 491.771 883.893 489.475 878.953 484.562C874.012 479.649 871.723 473.993 873.81 471.948C874.112 471.618 874.506 471.388 874.941 471.287C861.302 471.261 847.771 468.897 834.931 464.299L835.811 462.02C847.891 466.155 860.574 468.248 873.342 468.214C872.849 466.083 872.809 463.871 873.225 461.722C873.641 459.573 874.503 457.536 875.755 455.742C878.953 449.578 883.963 445.711 886.215 447.026C888.468 448.341 888.286 454.461 885.088 460.626C883.645 463.663 881.521 466.326 878.882 468.407C883.505 468.485 888.295 468.344 893.241 468.044C892.102 465.707 891.491 463.146 891.453 460.543C891.415 457.941 891.95 455.362 893.02 452.99C895.461 445.235 900.136 439.858 903.377 440.925C906.617 441.991 907.322 449.037 904.881 456.793C903.75 460.941 901.506 464.699 898.392 467.659C902.408 467.306 906.557 466.915 910.742 466.343C909.625 463.647 909.064 460.753 909.09 457.833C909.117 454.913 909.731 452.029 910.896 449.352C913.764 440.359 919.109 434.108 922.833 435.268C926.557 436.428 927.269 444.731 924.473 453.674C923.193 457.852 921.057 461.717 918.204 465.023C922.677 464.256 927.221 463.439 931.741 462.429C928.31 459.756 928.114 451.05 930.947 442.24Z" fill="#FFFAF3"/>
<path d="M421.87 151.635C399.885 165.834 389.569 183.03 390.302 204.185C382.347 209.31 373.278 212.434 363.864 213.292C363.331 213.35 362.84 213.611 362.493 214.022C362.147 214.432 361.972 214.961 362.004 215.499V216.121C362.17 216.511 362.458 216.837 362.823 217.051C363.188 217.265 363.613 217.355 364.033 217.309C374.335 216.395 384.25 212.936 392.895 207.24C410.426 215.555 436.244 207.636 451.183 195.191C455.91 191.164 460.08 186.523 463.584 181.389C470.846 170.443 476.344 158.416 479.876 145.753C481.736 140.492 445.32 136.419 421.87 151.635ZM421.87 182.294C427.112 178.108 432.524 174.092 438.048 170.302C447.829 171.769 457.818 170.797 467.136 167.474C465.295 171.249 463.205 174.896 460.879 178.391C448.818 184.466 434.946 185.856 421.926 182.294H421.87ZM443.629 161.704C446.901 155.085 451.788 149.403 457.835 145.187C462.491 145.08 467.149 145.364 471.758 146.035C462.114 150.723 452.741 155.954 443.685 161.704H443.629ZM421.983 177.373C423.618 167.066 428.201 157.457 435.173 149.712C440.244 147.708 445.548 146.358 450.957 145.696C444.888 150.994 440.384 157.862 437.936 165.551C432.411 169.228 427.112 173.074 421.983 177.373ZM469.616 162.44C461.322 166.03 452.31 167.638 443.291 167.135C453.299 160.413 463.752 154.384 474.577 149.09C473.111 153.559 471.476 157.914 469.616 162.157V162.44ZM440.867 197.85C430.439 198.647 419.985 196.697 410.539 192.193C413.076 189.874 415.669 187.668 418.318 185.462C430.457 189.699 443.666 189.699 455.805 185.462C451.528 190.299 446.48 194.389 440.867 197.567V197.85ZM397.236 204.864C400.507 202.03 403.631 199.028 406.593 195.87C406.902 195.728 407.172 195.515 407.382 195.248C415.175 199.204 423.694 201.514 432.411 202.036C421.367 207.078 408.887 207.981 397.236 204.581V204.864ZM405.353 171.66C402.899 178.602 402.221 186.051 403.38 193.325C400.533 196.265 397.521 199.042 394.361 201.64C394.364 190.569 398.256 179.853 405.353 171.377V171.66ZM427.056 153.502C421.574 161.664 418.31 171.121 417.586 180.937C413.828 183.878 410.276 186.933 406.931 190.1C406.5 180.643 408.832 171.265 413.64 163.118C417.805 159.419 422.295 156.106 427.056 153.219V153.502Z" fill="#FFFAF3"/>
<path d="M421.926 152.864C399.997 167.062 389.681 184.258 390.414 205.357C382.454 210.522 373.361 213.667 363.92 214.521C363.655 214.542 363.397 214.616 363.162 214.739C362.927 214.863 362.718 215.033 362.55 215.239C362.382 215.445 362.256 215.683 362.182 215.938C362.107 216.194 362.085 216.462 362.116 216.727C362.066 216.931 362.066 217.145 362.116 217.349C362.29 217.734 362.578 218.055 362.942 218.268C363.306 218.48 363.726 218.575 364.145 218.537C374.438 217.623 384.34 214.142 392.951 208.412C410.482 216.783 436.357 208.864 451.239 196.42C455.966 192.393 460.136 187.751 463.64 182.617C464.373 182.052 472.096 170.908 479.932 146.924C481.792 141.72 445.32 137.93 421.926 152.864ZM421.926 183.523C427.112 179.337 432.523 175.32 438.048 171.53C447.828 172.997 457.818 172.026 467.135 168.702C465.294 172.459 463.204 176.087 460.878 179.563C448.867 185.665 435.027 187.076 422.038 183.523H421.926ZM443.685 162.932C446.947 156.291 451.835 150.589 457.89 146.359C462.548 146.301 467.203 146.603 471.814 147.264C462.171 151.919 452.815 157.151 443.798 162.932H443.685ZM421.926 178.318C423.561 168.011 428.144 158.402 435.117 150.658C440.171 148.772 445.432 147.5 450.788 146.868C444.746 152.202 440.265 159.085 437.822 166.779C432.467 170.399 427.225 174.246 422.038 178.318H421.926ZM469.616 163.328C461.303 166.924 452.272 168.531 443.234 168.023C453.274 161.49 463.725 155.613 474.52 150.431C473.167 154.9 471.532 159.143 469.728 163.328H469.616ZM440.81 198.795C430.382 199.593 419.928 197.643 410.482 193.139C413.019 190.82 415.612 188.557 418.262 186.407C430.449 190.571 443.681 190.471 455.805 186.125C451.598 191.167 446.565 195.452 440.923 198.795H440.81ZM397.292 205.81C400.599 202.995 403.742 199.992 406.706 196.816C407.001 196.652 407.252 196.419 407.438 196.137C415.23 200.157 423.776 202.489 432.523 202.981C421.497 208.131 408.994 209.135 397.292 205.81ZM405.409 172.605C402.969 179.551 402.31 187.001 403.492 194.27C400.713 197.222 397.737 199.981 394.586 202.529C394.644 191.6 398.468 181.027 405.409 172.605ZM427.112 154.448C421.639 162.593 418.375 172.029 417.641 181.826C414.034 184.824 410.482 187.878 407.044 190.989C406.573 181.553 408.887 172.187 413.696 164.064C417.858 160.444 422.35 157.225 427.112 154.448Z" fill="#FFFAF3"/>
<path d="M821.906 335.661C805.64 332.181 793.279 335.288 784.112 345.136C778.232 343.87 772.749 341.205 768.128 337.366C767.862 337.152 767.524 337.049 767.184 337.078C766.843 337.108 766.527 337.267 766.3 337.523L766.021 337.803C765.921 338.053 765.904 338.329 765.972 338.589C766.04 338.85 766.191 339.081 766.401 339.249C771.446 343.462 777.461 346.357 783.907 347.674C788.063 359.286 803.235 367.312 815.543 368.418C819.478 368.728 823.438 368.512 827.319 367.775C835.501 366.11 843.373 363.166 850.647 359.053C853.846 357.521 839.288 339.342 821.906 335.661ZM808.143 349.457C812.381 349.926 816.619 350.549 820.806 351.323C824.548 356.373 829.479 360.421 835.164 363.108C832.641 363.98 830.063 364.683 827.448 365.212C819.294 362.531 812.428 356.929 808.168 349.482L808.143 349.457ZM827.177 349.96C831.621 348.45 836.37 348.087 840.983 348.904C843.127 350.947 845.095 353.165 846.868 355.537C840.424 353.316 833.858 351.463 827.202 349.985L827.177 349.96ZM810.403 347.293C815.766 343.389 822.141 341.123 828.755 340.768C831.937 342.142 834.929 343.916 837.66 346.046C832.551 345.706 827.442 346.774 822.888 349.135C818.752 348.309 814.641 347.661 810.403 347.293ZM838.54 361.956C833.196 359.849 828.419 356.526 824.587 352.251C832.107 353.719 839.517 355.699 846.765 358.176C844.099 359.529 841.408 360.755 838.667 361.829L838.54 361.956ZM809.708 364.984C804.658 360.662 800.829 355.091 798.601 348.824C800.784 348.92 802.941 349.091 805.123 349.288C808.683 356.643 814.627 362.573 821.991 366.116C817.895 366.372 813.787 365.946 809.835 364.857L809.708 364.984ZM786.927 348.554C789.671 348.747 792.424 348.799 795.175 348.707C795.377 348.782 795.595 348.808 795.809 348.782C797.54 354.06 800.336 358.923 804.024 363.072C796.791 360.382 790.77 355.187 787.054 348.426L786.927 348.554ZM805.485 337.257C801.264 339.279 797.615 342.326 794.872 346.12C792.271 346.165 789.669 346.062 787.081 345.812C792.052 340.832 798.614 337.758 805.612 337.13L805.485 337.257ZM823.402 338.829C817.271 340.041 811.557 342.831 806.825 346.923C803.813 346.559 800.844 346.339 797.917 346.263C801.969 341.814 807.228 338.641 813.048 337.134C816.583 337.339 820.091 337.864 823.529 338.702L823.402 338.829Z" fill="#FFFAF3"/>
<path d="M821.449 336.17C805.208 332.715 792.847 335.821 783.705 345.644C777.805 344.395 772.302 341.728 767.67 337.874C767.542 337.765 767.392 337.682 767.231 337.632C767.07 337.582 766.9 337.565 766.732 337.582C766.564 337.599 766.4 337.65 766.252 337.732C766.104 337.813 765.973 337.924 765.868 338.057C765.754 338.126 765.658 338.222 765.589 338.337C765.495 338.588 765.48 338.862 765.548 339.121C765.616 339.38 765.763 339.611 765.969 339.782C771.011 343.991 777.028 346.87 783.476 348.157C787.606 359.794 802.803 367.846 815.086 368.927C819.021 369.237 822.981 369.021 826.862 368.284C827.446 368.358 835.923 366.811 850.215 359.536C853.389 358.03 838.679 339.952 821.449 336.17ZM807.686 349.965C811.899 350.41 816.136 351.032 820.324 351.806C824.066 356.857 828.997 360.904 834.681 363.591C832.167 364.455 829.597 365.149 826.99 365.669C818.847 363.023 811.986 357.445 807.737 350.016L807.686 349.965ZM826.72 350.468C831.169 348.944 835.928 348.573 840.552 349.387C842.673 351.452 844.632 353.678 846.41 356.045C839.982 353.811 833.423 351.966 826.77 350.519L826.72 350.468ZM810.022 347.623C815.385 343.72 821.76 341.453 828.374 341.099C831.495 342.519 834.434 344.308 837.127 346.428C832.014 346.116 826.908 347.201 822.355 349.567C818.32 348.792 814.235 348.169 810.073 347.674L810.022 347.623ZM838.21 362.287C832.855 360.173 828.07 356.842 824.231 352.556C831.682 354.124 839.022 356.171 846.206 358.685C843.591 360.088 840.951 361.264 838.26 362.337L838.21 362.287ZM809.327 365.314C804.277 360.992 800.448 355.422 798.22 349.155C800.403 349.25 802.585 349.396 804.742 349.618C808.357 356.962 814.356 362.858 821.762 366.344C817.606 366.725 813.418 366.394 809.378 365.365L809.327 365.314ZM786.597 348.935C789.348 349.153 792.111 349.213 794.87 349.114C795.076 349.173 795.294 349.181 795.505 349.137C797.206 354.444 800.005 359.33 803.719 363.478C796.446 360.845 790.37 355.684 786.597 348.935ZM805.155 337.638C800.939 339.668 797.298 342.725 794.567 346.526C791.991 346.607 789.414 346.512 786.852 346.244C791.784 341.352 798.251 338.312 805.155 337.638ZM823.071 339.21C816.952 340.419 811.248 343.2 806.52 347.278C803.551 347.008 800.582 346.788 797.638 346.644C801.662 342.187 806.908 339.011 812.718 337.515C816.216 337.755 819.682 338.322 823.071 339.21Z" fill="#FFFAF3"/>
<path d="M921.691 -17.4918C892.482 7.78407 880.944 35.04 886.369 65.8091C875.797 74.9356 863.185 81.3679 849.603 84.5608C848.836 84.7542 848.172 85.2369 847.75 85.9086C847.328 86.5803 847.181 87.3894 847.338 88.168L847.466 89.0774C847.79 89.6133 848.277 90.0307 848.855 90.2681C849.433 90.5055 850.072 90.5503 850.677 90.3959C865.545 86.9404 879.325 79.8438 890.787 69.7397C918.122 78.2845 954.226 61.3965 973.497 40.1338C979.577 33.2754 984.718 25.6331 988.782 17.409C997.143 -0.0843256 1002.7 -18.7928 1005.26 -38.0283C1006.89 -46.0998 952.833 -44.5574 921.691 -17.4918ZM928.001 27.3173C934.802 20.1204 941.884 13.1368 949.178 6.46072C963.774 6.59101 978.175 3.11537 991.109 -3.65958C989.195 2.23662 986.891 7.99742 984.211 13.5842C967.834 24.9452 947.845 29.8317 928.083 27.3057L928.001 27.3173ZM955.565 -7.25425C958.986 -17.6018 964.958 -26.9115 972.928 -34.3186C979.712 -35.4337 986.577 -35.9774 993.452 -35.9442C980.321 -27.1083 967.699 -17.5335 955.648 -7.26586L955.565 -7.25425ZM927.153 20.1015C927.422 4.70041 932.142 -10.2868 940.739 -23.0407C947.737 -27.0137 955.211 -30.0777 962.981 -32.1591C955.202 -23.1663 950.032 -12.2023 948.036 -0.460657C940.718 6.05012 933.765 12.7625 927.153 20.1015ZM993.698 -11.528C982.315 -4.57294 969.474 -0.369013 956.189 0.752007C969.432 -11.1313 983.469 -22.094 998.2 -32.0599C996.978 -25.2271 995.485 -18.5247 993.64 -11.9414L993.698 -11.528ZM958.968 46.1426C943.891 49.454 928.211 48.7558 913.478 44.1171C916.708 40.2054 920.044 36.4475 923.462 32.6779C942.076 36.3726 961.382 33.654 978.251 24.9626C972.994 32.912 966.458 39.9296 958.909 45.7293L958.968 46.1426ZM896.642 65.3741C900.841 60.5587 904.788 55.5283 908.468 50.3031C908.889 50.0324 909.241 49.665 909.493 49.2312C921.697 53.4091 934.622 55.0324 947.471 54.0008C932.366 63.6432 914.313 67.5316 896.584 64.9607L896.642 65.3741ZM901.672 15.174C899.514 25.8253 900.056 36.8522 903.248 47.2441C899.692 52.128 895.862 56.8053 891.777 61.2534C889.503 45.0721 892.986 28.6097 901.614 14.7607L901.672 15.174ZM929.655 -15.8309C923.323 -2.7732 920.499 11.7195 921.46 26.2149C916.573 31.2874 912.011 36.4827 907.775 41.8008C905.198 28.0667 906.675 13.8803 912.026 0.984844C917.352 -5.27891 923.233 -11.0455 929.597 -16.2443L929.655 -15.8309Z" fill="#FFFAF3"/>
<path d="M921.994 -15.9331C892.867 9.33109 881.329 36.587 886.742 67.2734C876.171 76.4607 863.529 82.9285 849.906 86.1195C849.523 86.2047 849.162 86.3664 848.843 86.5952C848.525 86.8239 848.255 87.1148 848.051 87.4505C847.848 87.7863 847.714 88.1599 847.657 88.549C847.601 88.9381 847.623 89.3347 847.723 89.715C847.692 90.024 847.736 90.3361 847.851 90.6244C848.185 91.151 848.672 91.5607 849.248 91.797C849.823 92.0332 850.457 92.0842 851.062 91.9429C865.917 88.4886 879.672 81.3637 891.079 71.2157C918.424 79.8432 954.611 62.9436 973.8 41.6924C979.88 34.834 985.02 27.1917 989.085 18.9677C990.04 17.9901 999.033 0.11394 1005.55 -36.5523C1007.2 -44.5411 953.111 -42.5738 921.994 -15.9331ZM928.304 28.8759C935.022 21.6907 942.105 14.7071 949.399 8.03095C963.995 8.16123 978.395 4.68559 991.329 -2.08937C989.411 3.78013 987.103 9.51343 984.419 15.0718C968.121 26.4621 948.183 31.3729 928.469 28.8527L928.304 28.8759ZM955.868 -5.69564C959.269 -16.0733 965.239 -25.4134 973.219 -32.8427C980.014 -33.8856 986.88 -34.4015 993.755 -34.3856C980.619 -25.5969 968.023 -16.0241 956.033 -5.71885L955.868 -5.69564ZM927.233 21.2699C927.502 5.86888 932.222 -9.11831 940.819 -21.8723C947.818 -25.6684 955.245 -28.6108 962.943 -30.6367C955.211 -21.5971 950.077 -10.6153 948.091 1.13277C941.009 7.52607 934.139 14.2269 927.397 21.2467L927.233 21.2699ZM993.848 -10.4538C982.439 -3.48811 969.57 0.719823 956.257 1.83781C969.586 -9.77807 983.65 -20.5173 998.362 -30.3128C997.304 -23.5031 995.788 -16.9661 994.013 -10.477L993.848 -10.4538ZM959.047 47.3111C943.971 50.6225 928.29 49.9243 913.558 45.2856C916.788 41.3739 920.112 37.5333 923.542 33.8464C942.211 37.4232 961.531 34.554 978.355 25.7061C973.245 33.9412 966.771 41.2398 959.212 47.2879L959.047 47.3111ZM896.887 66.5194C901.141 61.7252 905.117 56.6894 908.795 51.4367C909.193 51.137 909.512 50.7449 909.726 50.2938C921.941 54.5658 934.912 56.215 947.798 55.1344C932.742 64.9307 914.675 68.971 896.887 66.5194ZM901.917 16.3193C899.78 26.9732 900.35 37.9978 903.575 48.3777C900.12 53.2637 896.339 57.9088 892.257 62.2812C890.092 46.2961 893.505 30.057 901.917 16.3193ZM929.899 -14.6857C923.578 -1.65376 920.749 12.8086 921.693 27.2775C917.037 32.4017 912.475 37.597 908.09 42.8518C905.46 29.157 906.914 14.9921 912.27 2.1301C917.609 -4.01654 923.511 -9.64647 929.899 -14.6857Z" fill="#FFFAF3"/>
</g>
</svg>
