<svg width="26" height="26" xmlns="http://www.w3.org/2000/svg"><path fill-rule="evenodd" clip-rule="evenodd" d="M13 0C5.82 0 0 5.82 0 13s5.82 13 13 13 13-5.82 13-13S20.18 0 13 0zm-2.858 6.109c.74-.034.976-.042 2.859-.042h-.002c1.883 0 2.118.008 2.858.042.738.033 1.242.15 1.684.322.457.177.842.414 1.228.8.386.385.623.771.8 1.227.17.441.288.945.322 1.683.034.74.042.976.042 2.86 0 1.882-.008 2.118-.042 2.857-.034.738-.151 1.242-.322 1.683a3.402 3.402 0 01-.8 1.228 3.392 3.392 0 01-1.227.8c-.441.172-.946.289-1.684.323-.74.033-.975.041-2.858.041s-2.12-.008-2.859-.041c-.738-.034-1.242-.151-1.683-.322a3.395 3.395 0 01-1.228-.8 3.397 3.397 0 01-.8-1.229c-.17-.44-.287-.945-.321-1.683-.034-.74-.042-.975-.042-2.858s.008-2.12.041-2.859c.034-.738.15-1.242.323-1.683.177-.456.414-.842.8-1.228a3.395 3.395 0 011.228-.8c.44-.17.945-.288 1.683-.321z"/><path fill-rule="evenodd" clip-rule="evenodd" d="M12.379 7.316H13c1.85 0 2.07.007 2.801.04.676.03 1.043.144 1.288.239.323.125.554.276.796.518.243.243.393.474.52.798.094.244.207.61.238 1.287.033.73.04.95.04 2.8 0 1.85-.007 2.07-.04 2.801-.03.676-.144 1.043-.239 1.287a2.142 2.142 0 01-.519.797 2.145 2.145 0 01-.796.518c-.244.096-.612.208-1.288.24-.73.033-.95.04-2.801.04-1.852 0-2.071-.008-2.802-.04-.676-.032-1.043-.145-1.287-.24a2.148 2.148 0 01-.798-.518 2.148 2.148 0 01-.519-.797c-.095-.244-.208-.611-.238-1.287-.034-.731-.04-.95-.04-2.802s.006-2.07.04-2.801c.03-.676.143-1.043.238-1.287.126-.324.277-.555.52-.798a2.15 2.15 0 01.797-.519c.244-.095.611-.208 1.287-.239.64-.028.887-.037 2.18-.039v.002zm4.323 1.151a.832.832 0 100 1.664.832.832 0 000-1.664zM9.44 13a3.56 3.56 0 117.121 0 3.56 3.56 0 01-7.12 0z"/><path fill-rule="evenodd" clip-rule="evenodd" d="M13 10.689a2.311 2.311 0 110 4.622 2.311 2.311 0 010-4.622z"/></svg>