<svg width="18" height="18" xmlns="http://www.w3.org/2000/svg"><path d="M13.924 7.161h-1.23a1.847 1.847 0 00-1.846-1.845v-1.23a3.08 3.08 0 013.076 3.075z"/><path d="M16.385 7.161h-1.23a4.311 4.311 0 00-4.307-4.306v-1.23a5.543 5.543 0 015.537 5.536zm-1.231 9.843h-.104C2.962 16.31 1.245 6.11 1.005 2.997A1.846 1.846 0 012.851 1.01h3.242a1.23 1.23 0 011.144.775l.935 2.3a1.23 1.23 0 01-.27 1.33l-1.31 1.322a5.758 5.758 0 004.662 4.675l1.335-1.323a1.23 1.23 0 011.335-.252l2.32.93A1.23 1.23 0 0117 11.91v3.248a1.846 1.846 0 01-1.846 1.846zM2.851 2.24a.615.615 0 00-.615.664c.283 3.642 2.098 12.255 12.881 12.87a.615.615 0 00.651-.577l.002-.038V11.91l-2.32-.928-1.765 1.753-.295-.037c-5.352-.67-6.078-6.023-6.078-6.078l-.037-.295 1.747-1.766-.923-2.32H2.851z"/><path d="M13.924 7.161h-1.23a1.847 1.847 0 00-1.846-1.845v-1.23a3.08 3.08 0 013.076 3.075z" stroke="#fff" stroke-width=".1"/><path d="M16.385 7.161h-1.23a4.311 4.311 0 00-4.307-4.306v-1.23a5.543 5.543 0 015.537 5.536zm-1.231 9.843h-.104C2.962 16.31 1.245 6.11 1.005 2.997A1.846 1.846 0 012.851 1.01h3.242a1.23 1.23 0 011.144.775l.935 2.3a1.23 1.23 0 01-.27 1.33l-1.31 1.322a5.758 5.758 0 004.662 4.675l1.335-1.323a1.23 1.23 0 011.335-.252l2.32.93A1.23 1.23 0 0117 11.91v3.248a1.846 1.846 0 01-1.846 1.846zM2.851 2.24a.615.615 0 00-.615.664c.283 3.642 2.098 12.255 12.881 12.87a.615.615 0 00.651-.577l.002-.038V11.91l-2.32-.928-1.765 1.753-.295-.037c-5.352-.67-6.078-6.023-6.078-6.078l-.037-.295 1.747-1.766-.923-2.32H2.851z" stroke="#fff" stroke-width=".1"/></svg>