<svg width="1043" height="590" fill="none" xmlns="http://www.w3.org/2000/svg"><g opacity=".6" fill="#FFFAF3"><path d="M198.985 21.483c11.903-1.456 36.244 6.476 51.509 22.039 19.415 19.726 18.979 38.777 9.622 51.747l18.07 21.45-1.722 1.618-77.479-96.854z"/><path d="M198.985 21.482c-3.258 18.971.463 38.512 10.483 55.051 15.154 23.144 32.564 27.459 47.356 21.248l16.869 23.047L276.5 118s-25.748-27.495-45-51.5c-19.252-24.006-32.515-45.018-32.515-45.018zm476.18 114.449c.473 7.782-5.64 23.263-16.344 32.552-13.57 11.816-25.916 10.778-33.961 4.192l-14.636 10.875-.983-1.181 65.924-46.438z"/><path d="M675.165 135.931c-12.181-2.866-25.009-1.227-36.139 4.62-15.62 8.916-19.11 20.042-15.666 29.888l-15.625 10.033 1.724 1.933s18.863-15.618 35.204-27.159c16.341-11.542 30.502-19.315 30.502-19.315zm121.658 489.454c-17.861 2.027-54.24-10.18-76.918-33.705-28.844-29.819-27.942-58.368-13.748-77.687l-26.805-32.386 2.602-2.404 114.869 146.182z"/><path d="M796.823 625.385c5.131-28.392-.192-57.729-14.995-82.65-22.412-34.886-48.451-41.581-70.703-32.465l-24.985-34.764-4.244 4.202s38.234 41.546 66.778 77.778c28.544 36.233 48.149 67.899 48.149 67.899zm-599.959-54.071c-6.672-3.109-16.772-15.147-19.666-28.211-3.703-16.58 2.712-26.36 11.799-30.075l-2.443-17.041 1.423-.283 8.887 75.61z"/><path d="M196.864 571.314c7.859-8.821 12.269-20.206 12.424-32.075-.374-16.976-8.039-24.879-17.76-26.449l-1.299-17.483-2.38.561s4.477 22.683 6.705 41.439c2.228 18.756 2.31 34.007 2.31 34.007zM2.503 377.306c3.163-8.838 17.262-23.078 33.51-28.289 20.618-6.652 33.791.344 39.577 11.446l21.352-5.106.527 1.773-94.966 20.176z"/><path d="M2.503 377.306c12.126 8.943 27.101 13.204 42.19 12.004 21.512-2.47 30.647-13.133 31.498-25.662l22.047-3.704-.992-2.957s-28.277 8.353-51.832 13.387c-23.555 5.035-42.911 6.932-42.911 6.932zm493.467 80.273c-1.836 11.106.583 20.736 5.038 21.301 4.455.565 9.795-7.608 11.675-18.636a36.198 36.198 0 00-.544-16.095c3.963 3.398 7.83 6.9 11.479 10.472-4.15 1.111-8.407 8.737-9.994 18.528-1.879 11.028.601 20.675 5.038 21.301 4.438.626 9.778-7.546 11.596-18.592.949-4.917.89-9.974-.175-14.865a198.054 198.054 0 0110.326 11.262c-4.097-.659-8.687 7.202-10.494 17.523-1.806 10.322.207 19.305 4.305 19.965 4.097.659 8.687-7.202 10.554-17.506a34.41 34.41 0 00-.408-15.197l2.657 3.351a143.51 143.51 0 017.897 11.218c-3.836-.65-8.357 7.429-10.131 18.091-1.773 10.662-.135 19.801 3.737 20.329 3.872.528 8.358-7.429 10.113-18.03.83-4.543.908-9.19.229-13.755a70.899 70.899 0 015.038 11.976c-3.144 2.196-4.339 10.182-2.569 19.094 1.955 10.091 6.901 17.609 10.962 16.803 4.061-.805 5.825-9.618 3.869-19.709-1.955-10.09-5.941-16.14-9.76-16.851a74.952 74.952 0 00-3.194-7.87 48.95 48.95 0 006.702 4.192c9.52 4.944 18.734 6.162 20.526 2.714 1.792-3.448-4.549-10.248-14.069-15.191-8.659-4.496-17.019-5.93-19.816-3.567-2.283-3.505-4.547-7.072-7.664-10.886l-1.792-2.239a39.08 39.08 0 0012.182 5.319c10.347 3.001 19.757 1.499 20.612-2.816.856-4.315-6.422-9.932-16.797-12.61-10.374-2.679-19.756-1.499-20.612 2.816a3.052 3.052 0 00-.06 1.57 332.559 332.559 0 00-10.706-11.769 37.212 37.212 0 0014.441.486c11.073-1.55 19.524-6.571 18.884-11.188-.64-4.617-10.127-7.17-21.2-5.621-9.915 1.423-17.717 5.574-18.799 9.757a310.604 310.604 0 00-11.375-10.375 32.753 32.753 0 0016.902-4.356c9.949-5.182 16.236-12.749 14.069-16.883-2.166-4.133-12.172-3.531-21.853 1.862-8.492 4.48-14.292 10.601-14.486 14.909a658.964 658.964 0 00-13.021-10.39 25.334 25.334 0 0016.089-3.599c8.465-4.158 13.955-11.03 12.091-14.613-1.864-3.583-10.286-2.984-18.874 1.601s-13.937 10.969-12.152 14.595c-4.044-2.892-8.123-5.663-12.194-8.233a26.622 26.622 0 0010.412-3.593c7.679-3.724 12.12-9.71 10.28-12.691-1.841-2.981-8.947-2.595-16.339 1.278a19.07 19.07 0 00-10.673 10.859c-2.934-1.712-5.643-3.291-8.735-4.915-1.644-.477-3.092-1.625-4.665-2.346 3.691.627 7.482.267 10.992-1.043 6.836-2.184 11.592-6.293 10.699-9.131-.892-2.838-7.193-3.409-14.029-1.226s-11.591 6.293-10.638 9.148c.122.444.375.84.726 1.137a122.923 122.923 0 00-39.957-12.385l-.264 2.503a118.35 118.35 0 0137.312 11.948 16.096 16.096 0 00-3.645 12.566c.037 7.153 2.813 13.05 5.495 12.902 2.683-.147 5.39-5.843 5.354-12.996a22.51 22.51 0 00-2.034-10.047c4.273 2.1 8.598 4.479 12.992 7.076a18.253 18.253 0 00-7.273 13.696c-1.405 8.256.356 15.379 3.827 15.924 3.472.544 7.426-5.584 8.832-13.839a24.236 24.236 0 00-.846-13.009c3.516 2.21 7.136 4.517 10.703 7.006a22.407 22.407 0 00-7.839 15.648c-1.594 9.59.371 17.831 4.329 18.517 3.958.685 8.51-6.592 10.148-16.103a32.442 32.442 0 00-.417-13.347c3.739 2.804 7.522 5.687 11.19 8.735-4.4.84-8.668 8.728-10.209 18.135zm-306.377-43.038c-8.043-3.054-15.623-2.696-16.72.556-1.096 3.252 4.22 8.488 12.198 11.562a27.674 27.674 0 0012.141 2.025c-3.145 2.455-6.353 4.823-9.58 7.017-.206-3.276-5.276-7.619-12.371-10.286-7.978-3.075-15.581-2.674-16.72.556-1.139 3.23 4.176 8.465 12.177 11.497a28.253 28.253 0 0011.163 2.114 151.268 151.268 0 01-9.998 6.035c1.113-2.97-4.082-7.597-11.542-10.51-7.46-2.913-14.494-2.762-15.608.209-1.113 2.97 4.083 7.596 11.52 10.552a26.289 26.289 0 0011.447 1.99l-2.911 1.485a110.003 110.003 0 01-9.598 4.221c1.067-2.776-4.303-7.384-12.023-10.323-7.72-2.94-14.814-3.093-15.795-.272-.98 2.821 4.304 7.384 11.98 10.301a32.196 32.196 0 0010.271 2.25 54.23 54.23 0 01-9.734 1.964c-1.17-2.687-6.972-4.789-13.917-4.81-7.855-.059-14.235 2.51-14.245 5.674-.009 3.164 6.326 5.818 14.181 5.877 7.856.059 12.99-2.013 14.1-4.766a57.53 57.53 0 006.379-1.204 37.38 37.38 0 00-4.154 4.388c-5.142 6.385-7.447 13.104-5.134 14.968 2.312 1.863 8.365-1.861 13.507-8.245 4.676-5.809 7.013-11.855 5.666-14.308 2.971-1.18 5.985-2.338 9.314-4.097l1.948-1.004a29.88 29.88 0 00-5.826 8.323c-3.812 7.298-4.108 14.575-1.004 15.868 3.103 1.293 8.411-3.311 11.985-10.679 3.574-7.367 4.108-14.575 1.004-15.868a2.34 2.34 0 00-1.167-.282 253.504 253.504 0 0010.435-6.243 28.42 28.42 0 00-2.546 10.746c-.512 8.53 1.973 15.62 5.529 15.838 3.555.218 6.902-6.504 7.414-15.034.432-7.642-1.499-14.115-4.47-15.558a236.035 236.035 0 009.492-6.954 25.023 25.023 0 00.71 13.321c2.379 8.237 7.098 14.09 10.522 13.091 3.424-.998 4.485-8.586 1.908-16.653-2.074-7.039-5.783-12.31-8.982-13.106a499.908 499.908 0 009.752-8.185 19.365 19.365 0 00.265 12.598c1.837 6.969 6.155 12.121 9.121 11.266 2.966-.855 3.79-7.255 1.653-14.382-2.138-7.127-6.112-12.099-9.099-11.309 2.778-2.593 5.47-5.23 8.011-7.892a20.321 20.321 0 001.118 8.343c1.63 6.316 5.444 10.548 7.955 9.619 2.511-.928 3.296-6.311 1.511-12.434a14.554 14.554 0 00-2.256-5.495 14.59 14.59 0 00-4.266-4.141c1.725-1.94 3.318-3.731 5.002-5.802.605-1.159 1.684-2.071 2.462-3.14a16.249 16.249 0 00-.879 8.393c.603 5.451 2.963 9.634 5.224 9.395 2.261-.24 3.641-4.874 3.038-10.326-.603-5.451-2.963-9.634-5.247-9.352-.35.025-.685.155-.961.373a93.93 93.93 0 0015.316-28.065l-1.835-.576a90.465 90.465 0 01-14.589 26.149 12.294 12.294 0 00-8.863-4.629c-5.365-1.054-10.203.135-10.497 2.167-.295 2.032 3.563 4.921 8.927 5.974 2.579.601 5.26.599 7.835-.006-2.219 2.885-4.654 5.766-7.264 8.665a13.947 13.947 0 00-9.162-7.518c-5.973-2.3-11.576-2.057-12.508.461-.932 2.519 3.061 6.407 9.033 8.708a18.533 18.533 0 009.874 1.332c-2.187 2.3-4.462 4.663-6.866 6.959a17.105 17.105 0 00-4.431-5.189 17.104 17.104 0 00-6.108-3.047c-6.944-2.644-13.415-2.417-14.526.445-1.112 2.862 3.652 7.372 10.53 10.035a24.797 24.797 0 0010.063 1.705c-2.666 2.377-5.397 4.776-8.235 7.064.036-3.424-5.229-7.813-12.044-10.389zM683.598 15.823c2.376-7.427 6.909-12.6 9.834-11.541 2.925 1.059 3.636 7.784 1.312 15.177a25.07 25.07 0 01-5.42 9.751 164.102 164.102 0 0010.385-2.83c-2.207-1.996-2.423-8.043-.309-14.58 2.325-7.392 6.901-12.557 9.835-11.541 2.933 1.016 3.644 7.74 1.276 15.125a25.604 25.604 0 01-4.803 9.11 136.821 136.821 0 009.923-3.683c-2.734-.887-3.081-7.183-.934-14.117 2.146-6.935 6.225-11.837 8.959-10.95 2.735.888 3.082 7.185.978 14.127a23.835 23.835 0 01-5.052 9.24l2.697-1.226a99.746 99.746 0 008.412-4.422c-2.571-.811-2.806-7.22-.531-14.354 2.274-7.133 6.17-12.25 8.724-11.352 2.554.897 2.806 7.22.54 14.31a29.175 29.175 0 01-4.203 8.553 49.187 49.187 0 006.889-5.793c-1.245-2.347.54-7.648 4.447-12.583 4.392-5.604 9.816-8.677 12.065-6.897 2.249 1.78.554 7.77-3.839 13.373s-8.761 8.074-11.34 7.306a52.18 52.18 0 01-4.455 3.844 33.827 33.827 0 015.456-.468c7.43-.041 13.496 2.118 13.512 4.81.015 2.692-6.042 4.881-13.473 4.922-6.758.037-12.365-1.72-13.343-4.06-2.515 1.44-5.038 2.924-8.164 4.29l-1.812.815a27.078 27.078 0 019.191.568c7.327 1.418 12.654 5.317 11.818 8.247-.835 2.93-7.097 4.095-14.339 2.47-7.242-1.626-12.654-5.317-11.818-8.248.064-.363.223-.703.459-.986a231.53 231.53 0 01-10.318 3.874 25.767 25.767 0 019.057 4.262c6.337 4.453 9.961 10.218 8.108 12.862-1.853 2.644-8.508 1.221-14.846-3.231-5.663-4.009-9.162-9.033-8.507-11.954a215.001 215.001 0 01-10.291 2.804 22.684 22.684 0 019.045 8.024c4.497 6.338 5.983 12.989 3.341 14.853-2.641 1.864-8.62-1.668-12.885-8.05-3.82-5.445-5.463-11.05-4.222-13.768a458.09 458.09 0 01-11.309 2.293 17.546 17.546 0 018.782 7.3c3.906 5.238 5.12 11.209 2.839 12.83-2.281 1.62-7.284-1.41-11.13-6.95-3.847-5.539-5.128-11.165-2.882-12.836a176.72 176.72 0 01-10.119 1.224 18.45 18.45 0 015.285 5.504c3.557 4.721 4.405 9.815 2.329 11.071-2.077 1.257-6.336-1.226-9.67-5.949a13.19 13.19 0 01-3.15-10.065c-2.35.128-4.519.246-6.938.27-1.164-.224-2.42.026-3.617-.027 2.474.78 4.697 2.2 6.448 4.116 3.524 3.505 5.158 7.54 3.712 9.009-1.447 1.467-5.512-.17-9.037-3.676-3.525-3.505-5.158-7.54-3.669-9 .216-.235.497-.4.807-.472a85.155 85.155 0 01-28.547-4.985l.628-1.627a82.003 82.003 0 0026.778 4.42 11.16 11.16 0 011.722-8.899c2.282-4.398 5.856-7.157 7.463-6.219 1.607.939 1.478 5.305-.804 9.704a15.587 15.587 0 01-4.428 5.551c3.298.056 6.716-.045 10.245-.258a12.65 12.65 0 01-.158-10.741c1.742-5.534 5.077-9.37 7.389-8.609 2.312.761 2.815 5.788 1.074 11.322a16.788 16.788 0 01-4.63 7.753c2.866-.252 5.826-.53 8.811-.94a15.51 15.51 0 01.11-12.122c2.047-6.416 5.861-10.877 8.517-10.049 2.657.828 3.165 6.752 1.171 13.133a22.476 22.476 0 01-4.473 8.097c3.191-.547 6.433-1.13 9.658-1.85-2.448-1.908-2.587-8.12-.566-14.406zM930.947 442.24c3.331-10.41 9.684-17.66 13.784-16.176 4.1 1.484 5.096 10.91 1.838 21.271a35.136 35.136 0 01-7.596 13.667c4.929-1.182 9.821-2.496 14.555-3.967-3.093-2.797-3.396-11.272-.433-20.434 3.258-10.361 9.672-17.599 13.784-16.176 4.111 1.424 5.107 10.85 1.789 21.199a35.888 35.888 0 01-6.732 12.767 192.29 192.29 0 0013.908-5.16c-3.832-1.244-4.318-10.069-1.31-19.787 3.009-9.719 8.725-16.59 12.558-15.346 3.832 1.244 4.318 10.069 1.37 19.799a33.42 33.42 0 01-7.08 12.951l3.779-1.719a139.424 139.424 0 0011.79-6.198c-3.603-1.136-3.933-10.119-.745-20.117 3.188-9.998 8.654-17.169 12.224-15.912 3.58 1.258 3.94 10.12.76 20.057a40.717 40.717 0 01-5.89 11.988 69.283 69.283 0 009.66-8.119c-1.75-3.29.75-10.719 6.23-17.637 6.15-7.853 13.76-12.161 16.91-9.666 3.15 2.494.77 10.89-5.38 18.743-6.16 7.854-12.28 11.317-15.9 10.241a73.467 73.467 0 01-6.24 5.387c2.53-.425 5.08-.645 7.65-.656 10.41-.058 18.91 2.969 18.93 6.742.03 3.772-8.46 6.84-18.88 6.898-9.47.051-17.329-2.411-18.7-5.691-3.524 2.019-7.06 4.098-11.442 6.014l-2.539 1.142a37.946 37.946 0 0112.881.796c10.27 1.987 17.73 7.451 16.56 11.559-1.17 4.107-9.94 5.738-20.093 3.46-10.15-2.278-17.735-7.452-16.564-11.559a2.96 2.96 0 01.644-1.383 323.776 323.776 0 01-14.462 5.43 36.106 36.106 0 0112.694 5.974c8.882 6.24 13.962 14.321 11.364 18.026-2.597 3.706-11.925 1.713-20.807-4.528-7.937-5.618-12.842-12.66-11.924-16.753a301.88 301.88 0 01-14.423 3.93 31.795 31.795 0 0112.677 11.246c6.303 8.882 8.385 18.204 4.683 20.816-3.701 2.613-12.081-2.337-18.059-11.282-5.354-7.631-7.657-15.488-5.917-19.297a637.308 637.308 0 01-15.851 3.214 24.596 24.596 0 0112.309 10.233c5.473 7.34 7.176 15.709 3.979 17.979-3.197 2.271-10.209-1.975-15.601-9.739-5.391-7.763-7.187-15.648-4.039-17.991-4.774.709-9.526 1.297-14.182 1.715a25.843 25.843 0 017.407 7.715c4.986 6.617 6.175 13.756 3.264 15.517-2.91 1.761-8.88-1.718-13.552-8.338a18.496 18.496 0 01-4.415-14.107c-3.293.179-6.334.345-9.724.38-1.631-.316-3.391.034-5.069-.039a20.654 20.654 0 019.036 5.768c4.94 4.913 7.23 10.569 5.203 12.627-2.028 2.057-7.725-.239-12.665-5.152-4.941-4.913-7.23-10.569-5.143-12.614a2.21 2.21 0 011.131-.661 119.345 119.345 0 01-40.01-6.988l.88-2.279a114.939 114.939 0 0037.531 6.194 15.628 15.628 0 012.413-12.472c3.198-6.164 8.208-10.031 10.46-8.716 2.253 1.315 2.071 7.435-1.127 13.6a21.853 21.853 0 01-6.206 7.781c4.623.078 9.413-.063 14.359-.363a17.74 17.74 0 01-.221-15.054c2.441-7.755 7.116-13.132 10.357-12.065 3.24 1.066 3.945 8.112 1.504 15.868a23.53 23.53 0 01-6.489 10.866c4.016-.353 8.165-.744 12.35-1.316a21.725 21.725 0 01.154-16.991c2.868-8.993 8.213-15.244 11.937-14.084 3.724 1.16 4.436 9.463 1.64 18.406a31.492 31.492 0 01-6.269 11.349c4.473-.767 9.017-1.584 13.537-2.594-3.431-2.673-3.627-11.379-.794-20.189zM421.87 151.635c-21.985 14.199-32.301 31.395-31.568 52.55a58.642 58.642 0 01-26.438 9.107 2.09 2.09 0 00-1.86 2.207v.622a1.977 1.977 0 002.029 1.188 62.492 62.492 0 0028.862-10.069c17.531 8.315 43.349.396 58.288-12.049a69.878 69.878 0 0012.401-13.802 125.407 125.407 0 0016.292-35.636c1.86-5.261-34.556-9.334-58.006 5.882zm0 30.659a278.202 278.202 0 0116.178-11.992 60.064 60.064 0 0029.088-2.828 94.346 94.346 0 01-6.257 10.917 54.565 54.565 0 01-38.953 3.903h-.056zm21.759-20.59a43.787 43.787 0 0114.206-16.517 83.357 83.357 0 0113.923.848 284.052 284.052 0 00-28.073 15.669h-.056zm-21.646 15.669a53.987 53.987 0 0113.19-27.661 64.152 64.152 0 0115.784-4.016 44.122 44.122 0 00-13.021 19.855c-5.525 3.677-10.824 7.523-15.953 11.822zm47.633-14.933a58.12 58.12 0 01-26.325 4.695 264.602 264.602 0 0131.286-18.045c-1.466 4.469-3.101 8.824-4.961 13.067v.283zm-28.749 35.41a59.86 59.86 0 01-30.328-5.657c2.537-2.319 5.13-4.525 7.779-6.731a56.867 56.867 0 0037.487 0 58.25 58.25 0 01-14.938 12.105v.283zm-43.631 7.014a125.494 125.494 0 009.357-8.994 2.14 2.14 0 00.789-.622 63.706 63.706 0 0025.029 6.788 50.57 50.57 0 01-35.175 2.545v.283zm8.117-33.204a44.16 44.16 0 00-1.973 21.665 108.283 108.283 0 01-9.019 8.315 47.163 47.163 0 0110.992-30.263v.283zm21.703-18.158a56.686 56.686 0 00-9.47 27.435 149.467 149.467 0 00-10.655 9.163 48.728 48.728 0 016.709-26.982 92.182 92.182 0 0113.416-9.899v.283z"/><path d="M421.926 152.864c-21.929 14.198-32.245 31.394-31.512 52.493a58.326 58.326 0 01-26.494 9.164 1.97 1.97 0 00-1.738 1.417 1.984 1.984 0 00-.066.789c-.05.204-.05.418 0 .622a2.027 2.027 0 002.029 1.188 61.876 61.876 0 0028.806-10.125c17.531 8.371 43.406.452 58.288-11.992a69.884 69.884 0 0012.401-13.803c.733-.565 8.456-11.709 16.292-35.693 1.86-5.204-34.612-8.994-58.006 5.94zm0 30.659a258.88 258.88 0 0116.122-11.993 60.047 60.047 0 0029.087-2.828 93.537 93.537 0 01-6.257 10.861 54.175 54.175 0 01-38.84 3.96h-.112zm21.759-20.591a43.735 43.735 0 0114.205-16.573 90.206 90.206 0 0113.924.905 266.84 266.84 0 00-28.016 15.668h-.113zm-21.759 15.386a53.974 53.974 0 0113.191-27.66 67.419 67.419 0 0115.671-3.79 44.534 44.534 0 00-12.966 19.911 274.686 274.686 0 00-15.784 11.539h-.112zm47.69-14.99a58.214 58.214 0 01-26.382 4.695 277.764 277.764 0 0131.286-17.592c-1.353 4.469-2.988 8.712-4.792 12.897h-.112zm-28.806 35.467a59.848 59.848 0 01-30.328-5.656 174.93 174.93 0 017.78-6.732 56.806 56.806 0 0037.543-.282 57.674 57.674 0 01-14.882 12.67h-.113zm-43.518 7.015a113.566 113.566 0 009.414-8.994c.295-.164.546-.397.732-.679a62.346 62.346 0 0025.085 6.844 50.572 50.572 0 01-35.231 2.829zm8.117-33.205a44.044 44.044 0 00-1.917 21.665 89.648 89.648 0 01-8.906 8.259 47.45 47.45 0 0110.823-29.924zm21.703-18.157a56.683 56.683 0 00-9.471 27.378 333.779 333.779 0 00-10.597 9.163 48.146 48.146 0 016.652-26.925 87.966 87.966 0 0113.416-9.616zm394.794 181.213c-16.266-3.48-28.627-.373-37.794 9.475a37.293 37.293 0 01-15.984-7.77 1.326 1.326 0 00-1.828.157l-.279.28a1.26 1.26 0 00.38 1.446 39.711 39.711 0 0017.506 8.425c4.156 11.612 19.328 19.638 31.636 20.744a44.42 44.42 0 0011.776-.643 79.677 79.677 0 0023.328-8.722c3.199-1.532-11.359-19.711-28.741-23.392zm-13.763 13.796c4.238.469 8.476 1.092 12.663 1.866a38.169 38.169 0 0014.358 11.785 60.106 60.106 0 01-7.716 2.104 34.688 34.688 0 01-19.28-15.73l-.025-.025zm19.034.503a27.829 27.829 0 0113.806-1.056 52.95 52.95 0 015.885 6.633 180.294 180.294 0 00-19.666-5.552l-.025-.025zm-16.774-2.667a34.31 34.31 0 0118.352-6.525 40.74 40.74 0 018.905 5.278 28.05 28.05 0 00-14.772 3.089c-4.136-.826-8.247-1.474-12.485-1.842zm28.137 14.663a36.926 36.926 0 01-13.953-9.705 168.286 168.286 0 0122.178 5.925 92.306 92.306 0 01-8.098 3.653l-.127.127zm-28.832 3.028a38.039 38.039 0 01-11.107-16.16c2.183.096 4.34.267 6.522.464a36.15 36.15 0 0016.868 16.828 37.058 37.058 0 01-12.156-1.259l-.127.127zm-22.781-16.43c2.744.193 5.497.245 8.248.153.202.075.42.101.634.075a40.508 40.508 0 008.215 14.29 32.143 32.143 0 01-16.97-14.646l-.127.128zm18.558-11.297a28.051 28.051 0 00-10.613 8.863 68.684 68.684 0 01-7.791-.308 29.976 29.976 0 0118.531-8.682l-.127.127zm17.917 1.572a36.03 36.03 0 00-16.577 8.094 94.716 94.716 0 00-8.908-.66 30.971 30.971 0 0115.131-9.129 58.58 58.58 0 0110.481 1.568l-.127.127z"/><path d="M821.449 336.17c-16.241-3.455-28.602-.349-37.744 9.474a37.072 37.072 0 01-16.035-7.77 1.252 1.252 0 00-1.418-.142 1.263 1.263 0 00-.384.325.821.821 0 00-.279.28 1.281 1.281 0 00.38 1.445 39.325 39.325 0 0017.507 8.375c4.13 11.637 19.327 19.689 31.61 20.77a44.42 44.42 0 0011.776-.643c.584.074 9.061-1.473 23.353-8.748 3.174-1.506-11.536-19.584-28.766-23.366zm-13.763 13.795c4.213.445 8.45 1.067 12.638 1.841a38.164 38.164 0 0014.357 11.785 59.437 59.437 0 01-7.691 2.078 34.432 34.432 0 01-19.253-15.653l-.051-.051zm19.034.503a27.807 27.807 0 0113.832-1.081 57.448 57.448 0 015.858 6.658 169.672 169.672 0 00-19.64-5.526l-.05-.051zm-16.698-2.845a34.31 34.31 0 0118.352-6.524 42.817 42.817 0 018.753 5.329 28.3 28.3 0 00-14.772 3.139 173.914 173.914 0 00-12.282-1.893l-.051-.051zm28.188 14.664a37.005 37.005 0 01-13.979-9.731 176.682 176.682 0 0121.975 6.129c-2.615 1.403-5.255 2.579-7.946 3.652l-.05-.05zm-28.883 3.027a38.036 38.036 0 01-11.107-16.159c2.183.095 4.365.241 6.522.463a36.107 36.107 0 0017.02 16.726c-4.156.381-8.344.05-12.384-.979l-.051-.051zm-22.73-16.379a72.04 72.04 0 008.273.179c.206.059.424.067.635.023a39.632 39.632 0 008.214 14.341 32.148 32.148 0 01-17.122-14.543zm18.558-11.297a27.995 27.995 0 00-10.588 8.888 56.945 56.945 0 01-7.715-.282 30.157 30.157 0 0118.303-8.606zm17.916 1.572a36.042 36.042 0 00-16.551 8.068c-2.969-.27-5.938-.49-8.882-.634a30.603 30.603 0 0115.08-9.129c3.498.24 6.964.807 10.353 1.695zm98.62-356.702C892.482 7.784 880.944 35.04 886.369 65.81a86.586 86.586 0 01-36.766 18.752 3.078 3.078 0 00-1.853 1.348 3.097 3.097 0 00-.412 2.259l.128.91a2.92 2.92 0 001.389 1.19 2.905 2.905 0 001.822.128 92.227 92.227 0 0040.11-20.656c27.335 8.544 63.439-8.343 82.71-29.606a103.132 103.132 0 0015.285-22.725 185.212 185.212 0 0016.478-55.437c1.63-8.072-52.427-6.53-83.569 20.536zm6.31 44.81A410.851 410.851 0 01949.178 6.46a88.655 88.655 0 0041.931-10.12 139.33 139.33 0 01-6.898 17.243 80.539 80.539 0 01-56.128 13.722l-.082.011zm27.564-34.572a64.645 64.645 0 0117.363-27.065 122.876 122.876 0 0120.524-1.625 418.834 418.834 0 00-37.804 28.678l-.083.012zM927.153 20.1a79.677 79.677 0 0113.586-43.142 94.662 94.662 0 0122.242-9.118A65.136 65.136 0 00948.036-.461c-7.318 6.511-14.271 13.223-20.883 20.563zm66.545-31.629A85.77 85.77 0 01956.189.752 390.717 390.717 0 01998.2-32.06c-1.222 6.833-2.715 13.535-4.56 20.119l.058.413zm-34.73 57.67a88.347 88.347 0 01-45.49-2.025c3.23-3.912 6.566-7.67 9.984-11.44a83.927 83.927 0 0054.789-7.714 86.02 86.02 0 01-19.342 20.766l.059.414zm-62.326 19.232a185.113 185.113 0 0011.826-15.07 3.18 3.18 0 001.025-1.073A94.018 94.018 0 00947.471 54a74.645 74.645 0 01-50.887 10.96l.058.413zm5.03-50.2a65.164 65.164 0 001.576 32.07 159.573 159.573 0 01-11.471 14.01 69.612 69.612 0 019.837-46.493l.058.413zm27.983-31.005a83.681 83.681 0 00-8.195 42.046A220.301 220.301 0 00907.775 41.8 71.906 71.906 0 01912.026.985a136.018 136.018 0 0117.571-17.23l.058.414z"/><path d="M921.994-15.933c-29.127 25.264-40.665 52.52-35.252 83.206a86.08 86.08 0 01-36.836 18.847 2.905 2.905 0 00-1.855 1.33 2.939 2.939 0 00-.328 2.264c-.031.31.013.622.128.91.334.527.821.937 1.397 1.173a2.986 2.986 0 001.814.146 91.323 91.323 0 0040.017-20.727c27.345 8.627 63.532-8.272 82.721-29.524 6.08-6.858 11.22-14.5 15.285-22.724.955-.978 9.948-18.854 16.465-55.52 1.65-7.99-52.439-6.022-83.556 20.619zm6.31 44.809A382.398 382.398 0 01949.399 8.03a88.651 88.651 0 0041.93-10.12 138.143 138.143 0 01-6.91 17.16 79.954 79.954 0 01-55.95 13.782l-.165.023zm27.564-34.572a64.554 64.554 0 0117.351-27.147 133.338 133.338 0 0120.536-1.543 393.994 393.994 0 00-37.722 28.667l-.165.023zM927.233 21.27a79.677 79.677 0 0113.586-43.142 99.538 99.538 0 0122.124-8.765 65.728 65.728 0 00-14.852 31.77c-7.082 6.393-13.952 13.094-20.694 20.114l-.164.023zm66.615-31.724a85.934 85.934 0 01-37.591 12.292 409.632 409.632 0 0142.105-32.15c-1.058 6.809-2.574 13.346-4.349 19.835l-.165.023zm-34.801 57.765a88.343 88.343 0 01-45.489-2.025c3.23-3.912 6.554-7.753 9.984-11.44a83.844 83.844 0 0054.813-8.14 85.105 85.105 0 01-19.143 21.582l-.165.023zm-62.16 19.208c4.254-4.794 8.23-9.83 11.908-15.082.398-.3.717-.692.931-1.143a92.025 92.025 0 0038.072 4.84 74.645 74.645 0 01-50.911 11.385zm5.03-50.2a64.985 64.985 0 001.658 32.059 132.336 132.336 0 01-11.318 13.903 70.026 70.026 0 019.66-45.962zm27.982-31.005a83.678 83.678 0 00-8.206 41.963c-4.656 5.125-9.218 10.32-13.603 15.575a71.073 71.073 0 014.18-40.722 129.994 129.994 0 0117.629-16.816z"/></g></svg>